<?xml version="1.0" encoding="UTF-8" standalone="no"?>
<!DOCTYPE svg PUBLIC "-//W3C//DTD SVG 1.1//EN"
 "http://www.w3.org/Graphics/SVG/1.1/DTD/svg11.dtd">
<!-- Generated by graphviz version 2.40.1 (20161225.0304)
 -->
<!-- Title: dependencies Pages: 1 -->
<svg width="504pt" height="284pt"
 viewBox="0.00 0.00 504.00 284.00" xmlns="http://www.w3.org/2000/svg" xmlns:xlink="http://www.w3.org/1999/xlink">
<g id="graph0" class="graph" transform="scale(1 1) rotate(0) translate(4 280)">
<title>dependencies</title>
<polygon fill="#ffffff" stroke="transparent" points="-4,4 -4,-280 500,-280 500,4 -4,4"/>
<text text-anchor="start" x="227.0091" y="-42.4" font-family="sans-serif" font-weight="bold" font-size="14.00" fill="#000000">Legend</text>
<polygon fill="#ffffb3" stroke="transparent" points="14,-10 14,-30 34,-30 34,-10 14,-10"/>
<text text-anchor="start" x="37.629" y="-15.4" font-family="sans-serif" font-size="14.00" fill="#000000"> &#160;Declarations</text>
<polygon fill="#8dd3c7" stroke="transparent" points="127,-10 127,-30 147,-30 147,-10 127,-10"/>
<text text-anchor="start" x="150.7251" y="-15.4" font-family="sans-serif" font-size="14.00" fill="#000000"> &#160;Module</text>
<polygon fill="#80b1d3" stroke="transparent" points="213,-10 213,-30 233,-30 233,-10 213,-10"/>
<text text-anchor="start" x="236.7812" y="-15.4" font-family="sans-serif" font-size="14.00" fill="#000000"> &#160;Bootstrap</text>
<polygon fill="#fdb462" stroke="transparent" points="310,-10 310,-30 330,-30 330,-10 310,-10"/>
<text text-anchor="start" x="333.6732" y="-15.4" font-family="sans-serif" font-size="14.00" fill="#000000"> &#160;Providers</text>
<polygon fill="#fb8072" stroke="transparent" points="406,-10 406,-30 426,-30 426,-10 406,-10"/>
<text text-anchor="start" x="429.7258" y="-15.4" font-family="sans-serif" font-size="14.00" fill="#000000"> &#160;Exports</text>
<g id="clust1" class="cluster">
<title>cluster_NgStickyModule</title>
<polygon fill="none" stroke="#000000" stroke-dasharray="1,5" points="104,-70 104,-268 392,-268 392,-70 104,-70"/>
</g>
<g id="clust2" class="cluster">
<title>cluster_NgStickyModule_declarations</title>
<polygon fill="none" stroke="#000000" points="248,-78 248,-130 384,-130 384,-78 248,-78"/>
</g>
<g id="clust4" class="cluster">
<title>cluster_NgStickyModule_imports</title>
<polygon fill="none" stroke="#000000" points="112,-78 112,-130 240,-130 240,-78 112,-78"/>
</g>
<g id="clust5" class="cluster">
<title>cluster_NgStickyModule_exports</title>
<polygon fill="none" stroke="#000000" points="178,-208 178,-260 318,-260 318,-208 178,-208"/>
</g>
<!-- NgStickyDirective -->
<g id="node1" class="node">
<title>NgStickyDirective</title>
<polygon fill="#ffffb3" stroke="#000000" points="376.4678,-122 255.5322,-122 255.5322,-86 376.4678,-86 376.4678,-122"/>
<text text-anchor="middle" x="316" y="-99.8" font-family="Times,serif" font-size="14.00" fill="#000000">NgStickyDirective</text>
</g>
<!-- NgStickyModule -->
<g id="node2" class="node">
<title>NgStickyModule</title>
<polygon fill="#8dd3c7" stroke="#000000" points="304.4356,-187 301.4356,-191 280.4356,-191 277.4356,-187 191.5644,-187 191.5644,-151 304.4356,-151 304.4356,-187"/>
<text text-anchor="middle" x="248" y="-164.8" font-family="Times,serif" font-size="14.00" fill="#000000">NgStickyModule</text>
</g>
<!-- NgStickyDirective&#45;&gt;NgStickyModule -->
<g id="edge1" class="edge">
<title>NgStickyDirective&#45;&gt;NgStickyModule</title>
<path fill="none" stroke="#000000" d="M279.8668,-122.1061C279.8668,-122.1061 279.8668,-140.991 279.8668,-140.991"/>
<polygon fill="#000000" stroke="#000000" points="276.3668,-140.9909 279.8668,-150.991 283.3668,-140.991 276.3668,-140.9909"/>
</g>
<!-- NgStickyDirective  -->
<g id="node4" class="node">
<title>NgStickyDirective </title>
<polygon fill="#fb8072" stroke="#000000" points="310.4687,-252 185.5313,-252 185.5313,-216 310.4687,-216 310.4687,-252"/>
<text text-anchor="middle" x="248" y="-229.8" font-family="Times,serif" font-size="14.00" fill="#000000">NgStickyDirective </text>
</g>
<!-- NgStickyModule&#45;&gt;NgStickyDirective  -->
<g id="edge3" class="edge">
<title>NgStickyModule&#45;&gt;NgStickyDirective </title>
<path fill="none" stroke="#000000" stroke-dasharray="5,2" d="M248,-187.1061C248,-187.1061 248,-205.991 248,-205.991"/>
<polygon fill="#000000" stroke="#000000" points="244.5001,-205.9909 248,-215.991 251.5001,-205.991 244.5001,-205.9909"/>
</g>
<!-- CommonModule -->
<g id="node3" class="node">
<title>CommonModule</title>
<polygon fill="#8dd3c7" stroke="#000000" points="231.6681,-122 228.6681,-126 207.6681,-126 204.6681,-122 120.3319,-122 120.3319,-86 231.6681,-86 231.6681,-122"/>
<text text-anchor="middle" x="176" y="-99.8" font-family="Times,serif" font-size="14.00" fill="#000000">CommonModule</text>
</g>
<!-- CommonModule&#45;&gt;NgStickyModule -->
<g id="edge2" class="edge">
<title>CommonModule&#45;&gt;NgStickyModule</title>
<path fill="none" stroke="#000000" d="M211.8082,-122.1061C211.8082,-122.1061 211.8082,-140.991 211.8082,-140.991"/>
<polygon fill="#000000" stroke="#000000" points="208.3083,-140.9909 211.8082,-150.991 215.3083,-140.991 208.3083,-140.9909"/>
</g>
</g>
</svg>
